<svg width="72" height="14" viewBox="0 0 72 14" fill="none" xmlns="http://www.w3.org/2000/svg">
<path d="M0.688 10.136C0.944 9.54933 1.296 9.00533 1.744 8.504C2.192 7.992 2.75733 7.44267 3.44 6.856C4.09067 6.29067 4.55467 5.86933 4.832 5.592C5.10933 5.304 5.30667 5.02133 5.424 4.744C5.54133 4.46667 5.6 4.12533 5.6 3.72C5.6 3.15467 5.43467 2.73333 5.104 2.456C4.77333 2.168 4.24533 2.024 3.52 2.024C2.74133 2.024 1.92533 2.184 1.072 2.504V0.967999C1.456 0.839999 1.89867 0.738666 2.4 0.664C2.912 0.578666 3.39733 0.535999 3.856 0.535999C4.98667 0.535999 5.85067 0.818666 6.448 1.384C7.04533 1.93867 7.344 2.712 7.344 3.704C7.344 4.376 7.17867 4.95733 6.848 5.448C6.528 5.93867 6.02667 6.49333 5.344 7.112L5.072 7.352C4.47467 7.87467 4.016 8.296 3.696 8.616C3.38667 8.92533 3.12533 9.272 2.912 9.656H7.456V11H0.688V10.136ZM18.2065 11.16C17.1078 11.16 16.2545 10.872 15.6465 10.296C15.0492 9.70933 14.7505 8.76 14.7505 7.448C14.7505 6.56267 14.9052 5.80533 15.2145 5.176C15.5238 4.54667 15.9505 4.072 16.4945 3.752C17.0385 3.42133 17.6625 3.256 18.3665 3.256C18.8145 3.256 19.2198 3.30933 19.5825 3.416C19.9452 3.52267 20.2918 3.688 20.6225 3.912V0.216H22.3665V11H20.8785L20.7665 10.248C20.4145 10.568 20.0358 10.8027 19.6305 10.952C19.2252 11.0907 18.7505 11.16 18.2065 11.16ZM18.6705 9.848C19.4492 9.848 20.0998 9.58133 20.6225 9.048V5.256C20.1212 4.808 19.4918 4.584 18.7345 4.584C17.9985 4.584 17.4438 4.82933 17.0705 5.32C16.6972 5.81067 16.5105 6.52533 16.5105 7.464C16.5105 8.34933 16.6758 8.968 17.0065 9.32C17.3478 9.672 17.9025 9.848 18.6705 9.848ZM26.6729 11.16C25.9049 11.16 25.2649 10.9627 24.7529 10.568C24.2409 10.1627 23.9849 9.58667 23.9849 8.84C23.9849 8.09333 24.2355 7.50667 24.7369 7.08C25.2489 6.64267 26.0115 6.424 27.0249 6.424H29.4569V6.088C29.4569 5.71467 29.3982 5.42667 29.2809 5.224C29.1742 5.01067 28.9715 4.856 28.6729 4.76C28.3742 4.664 27.9475 4.616 27.3929 4.616C26.4969 4.616 25.6595 4.74933 24.8809 5.016V3.72C25.2435 3.58133 25.6702 3.46933 26.1609 3.384C26.6515 3.29867 27.1689 3.256 27.7129 3.256C28.8435 3.256 29.6915 3.48533 30.2569 3.944C30.8329 4.40267 31.1209 5.128 31.1209 6.12V11H29.6329L29.5209 10.232C29.2009 10.5413 28.8115 10.776 28.3529 10.936C27.8942 11.0853 27.3342 11.16 26.6729 11.16ZM27.1369 9.912C27.6382 9.912 28.0862 9.82667 28.4809 9.656C28.8755 9.48533 29.2009 9.24533 29.4569 8.936V7.608H27.0569C26.5449 7.608 26.1715 7.704 25.9369 7.896C25.7129 8.088 25.6009 8.392 25.6009 8.808C25.6009 9.192 25.7289 9.47467 25.9849 9.656C26.2409 9.82667 26.6249 9.912 27.1369 9.912ZM34.0481 13.816C33.4721 13.816 32.9815 13.7413 32.5761 13.592V12.296C32.8748 12.4027 33.2001 12.456 33.5521 12.456C33.8721 12.456 34.1335 12.4027 34.3361 12.296C34.5388 12.2 34.7148 12.0453 34.8641 11.832C35.0135 11.6187 35.1895 11.3093 35.3921 10.904L32.0161 3.416H33.8241L36.2561 9.048L38.7201 3.416H40.5121L37.4241 10.568C36.9655 11.656 36.4855 12.4667 35.9841 13C35.4935 13.544 34.8481 13.816 34.0481 13.816ZM50.1885 11.16C49.4205 11.16 48.7805 10.9627 48.2685 10.568C47.7565 10.1627 47.5005 9.58667 47.5005 8.84C47.5005 8.09333 47.7512 7.50667 48.2525 7.08C48.7645 6.64267 49.5272 6.424 50.5405 6.424H52.9725V6.088C52.9725 5.71467 52.9138 5.42667 52.7965 5.224C52.6898 5.01067 52.4872 4.856 52.1885 4.76C51.8898 4.664 51.4632 4.616 50.9085 4.616C50.0125 4.616 49.1752 4.74933 48.3965 5.016V3.72C48.7592 3.58133 49.1858 3.46933 49.6765 3.384C50.1672 3.29867 50.6845 3.256 51.2285 3.256C52.3592 3.256 53.2072 3.48533 53.7725 3.944C54.3485 4.40267 54.6365 5.128 54.6365 6.12V11H53.1485L53.0365 10.232C52.7165 10.5413 52.3272 10.776 51.8685 10.936C51.4098 11.0853 50.8498 11.16 50.1885 11.16ZM50.6525 9.912C51.1538 9.912 51.6018 9.82667 51.9965 9.656C52.3912 9.48533 52.7165 9.24533 52.9725 8.936V7.608H50.5725C50.0605 7.608 49.6872 7.704 49.4525 7.896C49.2285 8.088 49.1165 8.392 49.1165 8.808C49.1165 9.192 49.2445 9.47467 49.5005 9.656C49.7565 9.82667 50.1405 9.912 50.6525 9.912ZM59.6425 13.816C59.0558 13.816 58.4798 13.7787 57.9145 13.704C57.3598 13.6293 56.8905 13.528 56.5065 13.4V12.056C56.9118 12.1947 57.3918 12.3013 57.9465 12.376C58.5012 12.4507 59.0398 12.488 59.5625 12.488C60.3732 12.488 60.9438 12.44 61.2745 12.344C61.6052 12.2587 61.7705 12.072 61.7705 11.784C61.7705 11.56 61.6798 11.4 61.4985 11.304C61.3278 11.2187 61.0078 11.176 60.5385 11.176H58.4905C57.8185 11.176 57.3065 11.0533 56.9545 10.808C56.6025 10.552 56.4265 10.1893 56.4265 9.72C56.4265 9.38933 56.5225 9.096 56.7145 8.84C56.9065 8.57333 57.1892 8.376 57.5625 8.248C56.7092 7.832 56.2825 7.09067 56.2825 6.024C56.2825 5.064 56.5705 4.36533 57.1465 3.928C57.7225 3.48 58.5972 3.256 59.7705 3.256C60.1972 3.256 60.6612 3.30933 61.1625 3.416H63.9465L63.8985 4.552H62.6185C63.0132 4.904 63.2105 5.39467 63.2105 6.024C63.2105 6.856 62.9598 7.50133 62.4585 7.96C61.9678 8.408 61.2318 8.632 60.2505 8.632C59.9945 8.632 59.6798 8.60533 59.3065 8.552C58.9652 8.584 58.6718 8.67467 58.4265 8.824C58.1812 8.96267 58.0585 9.144 58.0585 9.368C58.0585 9.528 58.1225 9.64533 58.2505 9.72C58.3785 9.784 58.5918 9.816 58.8905 9.816H61.0185C61.7758 9.816 62.3572 9.98133 62.7625 10.312C63.1785 10.632 63.3865 11.1013 63.3865 11.72C63.3865 12.456 63.0718 12.9893 62.4425 13.32C61.8238 13.6507 60.8905 13.816 59.6425 13.816ZM59.7705 7.528C60.4638 7.528 60.9438 7.416 61.2105 7.192C61.4878 6.95733 61.6265 6.552 61.6265 5.976C61.6265 5.4 61.4878 4.98933 61.2105 4.744C60.9332 4.488 60.4532 4.36 59.7705 4.36C59.1092 4.36 58.6292 4.488 58.3305 4.744C58.0425 4.98933 57.8985 5.4 57.8985 5.976C57.8985 6.53067 58.0372 6.93067 58.3145 7.176C58.6025 7.41067 59.0878 7.528 59.7705 7.528ZM68.015 11.16C65.3803 11.16 64.063 9.84267 64.063 7.208C64.063 4.57333 65.3803 3.256 68.015 3.256C70.6603 3.256 71.983 4.57333 71.983 7.208C71.983 9.84267 70.6603 11.16 68.015 11.16ZM68.015 9.688C68.815 9.688 69.3803 9.496 69.711 9.112C70.0523 8.728 70.223 8.09333 70.223 7.208C70.223 6.33333 70.0523 5.704 69.711 5.32C69.3803 4.936 68.815 4.744 68.015 4.744C67.2257 4.744 66.6603 4.936 66.319 5.32C65.9883 5.704 65.823 6.33333 65.823 7.208C65.823 8.09333 65.9883 8.728 66.319 9.112C66.6603 9.496 67.2257 9.688 68.015 9.688Z" fill="black"/>
</svg>
